<?xml version="1.0" encoding="UTF-8" standalone="no"?>
<svg
   width="24"
   height="24"
   viewBox="0 0 24 24"
   version="1.1"
   id="svg10"
   sodipodi:docname="mail-mark-notjunk.svg"
   inkscape:version="1.1.2 (0a00cf5339, 2022-02-04)"
   xmlns:inkscape="http://www.inkscape.org/namespaces/inkscape"
   xmlns:sodipodi="http://sodipodi.sourceforge.net/DTD/sodipodi-0.dtd"
   xmlns="http://www.w3.org/2000/svg"
   xmlns:svg="http://www.w3.org/2000/svg">
  <defs
     id="defs14" />
  <sodipodi:namedview
     id="namedview12"
     pagecolor="#ffffff"
     bordercolor="#666666"
     borderopacity="1.0"
     inkscape:pageshadow="2"
     inkscape:pageopacity="0.0"
     inkscape:pagecheckerboard="0"
     showgrid="false"
     inkscape:zoom="26.291667"
     inkscape:cx="12"
     inkscape:cy="11.980983"
     inkscape:window-width="1920"
     inkscape:window-height="1000"
     inkscape:window-x="0"
     inkscape:window-y="0"
     inkscape:window-maximized="1"
     inkscape:current-layer="svg10" />
  <g
     opacity=".3"
     transform="translate(5 5)"
     id="g8">
    <path
       d="M4.30454091,1 L1.00640796,4.2961969 L1.0019531,8.69741228 L4.29815,11.9955452 L8.69936529,12 L11.9974982,8.70380319 L12.0019531,4.30258781 L8.7057562,1.00445486 L4.30454091,1 Z M3.91936384,0 L9.08454236,0 L9.37472093,0.261160716 L12.7407924,3.62723217 L13.0019531,3.91741074 L13.0019531,9.08258935 L12.7407924,9.37276792 L9.37472093,12.7388394 L9.08454236,13 L3.91936384,13 L3.62918527,12.7388394 L0.263113816,9.37276792 L0.0019531,9.08258935 L0.0019531,3.91741074 L0.263113816,3.62723217 L3.62918527,0.261160716 L3.91936384,0 Z"
       id="path2"
       style="fill:#fbfbfb;fill-opacity:1" />
    <polygon
       points="6.002 3 7.002 3 7.002 6 6.752 8 6.283 8 6.002 6"
       id="polygon4"
       style="fill:#fbfbfb;fill-opacity:1" />
    <path
       d="M6.5,9 C7.052288,9 7.5,9.447712 7.5,10 C7.5,10.552288 7.052288,11 6.5,11 C5.947712,11 5.5,10.552288 5.5,10 C5.5,9.447712 5.947712,9 6.5,9 Z"
       id="path6"
       style="fill:#fbfbfb;fill-opacity:1" />
  </g>
</svg>
