<?xml version="1.0" encoding="UTF-8" standalone="no"?>
<svg
   width="24"
   height="24"
   viewBox="0 0 24 24"
   version="1.1"
   id="svg8"
   sodipodi:docname="office-chart-area-focus-peak-node.svg"
   inkscape:version="1.1.2 (0a00cf5339, 2022-02-04)"
   xmlns:inkscape="http://www.inkscape.org/namespaces/inkscape"
   xmlns:sodipodi="http://sodipodi.sourceforge.net/DTD/sodipodi-0.dtd"
   xmlns="http://www.w3.org/2000/svg"
   xmlns:svg="http://www.w3.org/2000/svg">
  <defs
     id="defs12" />
  <sodipodi:namedview
     id="namedview10"
     pagecolor="#ffffff"
     bordercolor="#666666"
     borderopacity="1.0"
     inkscape:pageshadow="2"
     inkscape:pageopacity="0.0"
     inkscape:pagecheckerboard="0"
     showgrid="false"
     inkscape:zoom="26.291667"
     inkscape:cx="12"
     inkscape:cy="11.980983"
     inkscape:window-width="1920"
     inkscape:window-height="1000"
     inkscape:window-x="0"
     inkscape:window-y="0"
     inkscape:window-maximized="1"
     inkscape:current-layer="svg8" />
  <g
     fill="none"
     transform="translate(5 6)"
     id="g6">
    <path
       fill="#fafafa"
       d="M1,0 L1,5.9960938 L1,6.9960938 L1,12 L13,12 L13,11 L2,11 L2,10 L5.005859,10 L5.005859,9.9922 L5.013659,10 L7.013659,8 L8.605456,8 L10.605456,10 L13.005846,10 L13.005846,9 L11.019518,9 L9.019518,7 L7.605456,7 L6.599596,7 L4.599596,9 L2,9 L2,6.9960938 L4,6.9960938 L4,6.9882838 L4.0078,6.9960938 L5.003906,6 L6,6 L7,6 L7,5 L6,5 L6,4 L5,4 L5,5.9960938 L4.296875,5.2929688 L3.59375,5.9960938 L2,5.9960938 L2,0 L1,0 Z M5,0 L5,1 L5,2 L6,2 L6,1 L7,1 L7,0 L5,0 Z M9,0 L9,1 L10,1 L10,2 L11,2 L11,0 L10,0 L9,0 Z M8,1.5898438 L6.296875,3.2929688 L7.003906,4 L8,3.0039062 L8.996094,4 L9.703125,3.2929688 L8,1.5898438 Z M10,4 L10,5 L9,5 L9,6 L11,6 L11,5 L11,4 L10,4 Z M13,4 L12,5 L13,5 L13,4 Z"
       id="path2" />
    <polygon
       fill="#000"
       points="8 3 6.004 5 7 5 7 6 5.006 6 4.008 7 .998 7 .998 11 5.998 11 7.998 10.992 12.998 11 12.998 5 10.998 5 10.998 6 8.998 6 8.998 5 9.998 5"
       opacity=".3"
       id="polygon4"
       style="fill:#fefefe;fill-opacity:1" />
  </g>
</svg>
