<?xml version="1.0" encoding="UTF-8" standalone="no"?>
<svg
   width="16"
   height="16"
   viewBox="0 0 16 16"
   version="1.1"
   id="svg87"
   sodipodi:docname="computer.svg"
   inkscape:version="1.1.2 (0a00cf5339, 2022-02-04)"
   xmlns:inkscape="http://www.inkscape.org/namespaces/inkscape"
   xmlns:sodipodi="http://sodipodi.sourceforge.net/DTD/sodipodi-0.dtd"
   xmlns:xlink="http://www.w3.org/1999/xlink"
   xmlns="http://www.w3.org/2000/svg"
   xmlns:svg="http://www.w3.org/2000/svg">
  <sodipodi:namedview
     id="namedview89"
     pagecolor="#ffffff"
     bordercolor="#666666"
     borderopacity="1.0"
     inkscape:pageshadow="2"
     inkscape:pageopacity="0.0"
     inkscape:pagecheckerboard="0"
     showgrid="false"
     inkscape:zoom="8"
     inkscape:cx="-12.8125"
     inkscape:cy="-20.25"
     inkscape:window-width="1920"
     inkscape:window-height="1000"
     inkscape:window-x="0"
     inkscape:window-y="0"
     inkscape:window-maximized="1"
     inkscape:current-layer="svg87" />
  <defs
     id="defs40">
    <linearGradient
       inkscape:collect="always"
       id="linearGradient5540">
      <stop
         style="stop-color:#e080a9;stop-opacity:1"
         offset="0"
         id="stop5536" />
      <stop
         style="stop-color:#e080a9;stop-opacity:1"
         offset="1"
         id="stop5538" />
    </linearGradient>
    <linearGradient
       id="computer-a"
       x1="4.9497475"
       x2="4.9497475"
       y1="16.970563"
       y2="14.142136"
       gradientTransform="scale(1.4142136,0.70710678)"
       gradientUnits="userSpaceOnUse">
      <stop
         offset="0%"
         stop-color="#CFDAFC"
         id="stop2" />
      <stop
         offset="100%"
         stop-color="#CDCFD2"
         id="stop4" />
    </linearGradient>
    <polygon
       id="computer-b"
       points="5 10 9 10 9 12 5 12" />
    <filter
       id="computer-c"
       width="1.6"
       height="2.7"
       x="-0.3"
       y="-0.6"
       filterUnits="objectBoundingBox">
      <feGaussianBlur
         in="SourceAlpha"
         result="shadowBlurInner1"
         stdDeviation=".5"
         id="feGaussianBlur8" />
      <feOffset
         dy="1"
         in="shadowBlurInner1"
         result="shadowOffsetInner1"
         id="feOffset10" />
      <feComposite
         in="shadowOffsetInner1"
         in2="SourceAlpha"
         k2="-1"
         k3="1"
         operator="arithmetic"
         result="shadowInnerInner1"
         id="feComposite12" />
      <feColorMatrix
         in="shadowInnerInner1"
         values="0 0 0 0 0.305544245   0 0 0 0 0.316030326   0 0 0 0 0.533769248  0 0 0 0.178130463 0"
         id="feColorMatrix14" />
    </filter>
    <linearGradient
       id="computer-d"
       x1="2.857738"
       x2="2.857738"
       y1="26.944387"
       y2="28.906526"
       gradientTransform="matrix(2.4494897,0,0,0.40824829,1,2)"
       gradientUnits="userSpaceOnUse">
      <stop
         offset="0%"
         stop-color="#FFF"
         id="stop17" />
      <stop
         offset="100%"
         stop-color="#EBF4FF"
         id="stop19" />
    </linearGradient>
    <linearGradient
       id="computer-e"
       x1="4.6854167"
       x2="8.9098534"
       y1="2.8976959"
       y2="8.9344638"
       gradientTransform="matrix(1.183216,0,0,0.84515425,1,2)"
       gradientUnits="userSpaceOnUse">
      <stop
         offset="0%"
         stop-color="#D7E4FF"
         id="stop22" />
      <stop
         offset="100%"
         stop-color="#F4F9FF"
         id="stop24" />
    </linearGradient>
    <linearGradient
       id="computer-g"
       x1="46.826%"
       x2="46.826%"
       y1=".565%"
       y2="99.664%">
      <stop
         offset="0%"
         stop-color="#4F5D73"
         id="stop27" />
      <stop
         offset="100%"
         stop-color="#313A46"
         id="stop29" />
    </linearGradient>
    <rect
       id="computer-f"
       width="12"
       height="8"
       x=".5"
       y=".5"
       rx="1.125" />
    <linearGradient
       id="computer-i"
       x1="0.125"
       x2="6.125"
       y1="3.5"
       y2="3.5"
       gradientTransform="scale(2,0.5)"
       gradientUnits="userSpaceOnUse">
      <stop
         offset="0%"
         stop-color="#A09AD3"
         id="stop33" />
      <stop
         offset="49.618%"
         stop-color="#988DD9"
         id="stop35" />
      <stop
         offset="100%"
         stop-color="#1654D2"
         id="stop37" />
    </linearGradient>
    <linearGradient
       inkscape:collect="always"
       xlink:href="#computer-g"
       id="linearGradient1760"
       x1="4.9962405"
       y1="0.66773091"
       x2="4.9962405"
       y2="10.377411"
       gradientTransform="scale(1.2247449,0.81649658)"
       gradientUnits="userSpaceOnUse" />
    <mask
       id="computer-h"
       fill="#ffffff">
      <use
         xlink:href="#computer-f"
         id="use50"
         x="0"
         y="0"
         width="100%"
         height="100%" />
    </mask>
    <linearGradient
       inkscape:collect="always"
       xlink:href="#linearGradient5540"
       id="linearGradient5542"
       x1="9.1410942"
       y1="3.601855"
       x2="7"
       y2="9"
       gradientUnits="userSpaceOnUse" />
  </defs>
  <use
     fill="url(#computer-a)"
     xlink:href="#computer-b"
     id="use42"
     style="fill:url(#computer-a);fill-rule:evenodd"
     transform="translate(1,2)"
     x="0"
     y="0"
     width="100%"
     height="100%" />
  <use
     fill="#fafafa"
     filter="url(#computer-c)"
     xlink:href="#computer-b"
     id="use44"
     transform="translate(1,2)"
     style="fill-rule:evenodd"
     x="0"
     y="0"
     width="100%"
     height="100%" />
  <path
     fill="url(#computer-d)"
     d="m 5.5,13 h 5 c 0.276142,0 0.5,0.223858 0.5,0.5 0,0.276142 -0.223858,0.5 -0.5,0.5 h -5 C 5.2238576,14 5,13.776142 5,13.5 5,13.223858 5.2238576,13 5.5,13 Z"
     id="path46"
     style="fill:url(#computer-d);fill-rule:evenodd" />
  <rect
     width="14"
     height="10"
     fill="url(#computer-e)"
     rx="1.563"
     id="rect48"
     style="fill:url(#computer-e);fill-rule:evenodd"
     x="1"
     y="2" />
  <use
     fill="url(#computer-g)"
     xlink:href="#computer-f"
     id="use53"
     clip-path="none"
     mask="none"
     style="fill:url(#linearGradient1760);fill-rule:evenodd"
     x="0"
     y="0"
     width="100%"
     height="100%"
     transform="translate(1.5,2.5)" />
  <path
     id="path55"
     style="fill-rule:evenodd;fill:#1c4186;fill-opacity:1"
     d="M 11.080078 3 C 10.196617 5.1470066 9.8545864 6.3609931 10.058594 6.6308594 C 10.413476 7.1003059 10.284711 8.2900405 9.8007812 8.9472656 C 9.3168512 9.6044907 7.7999819 10.04218 7.6386719 10.574219 C 7.5922841 10.727217 7.218765 10.867673 6.7070312 11 L 12.875 11 C 13.49825 11 14 10.49825 14 9.875 L 14 4.125 C 14 3.50175 13.49825 3 12.875 3 L 11.080078 3 z " />
  <path
     id="path57"
     style="fill-rule:evenodd;fill-opacity:1;fill:url(#linearGradient5542)"
     d="M 3.7441406 3 L 3.2695312 3.5019531 C 3.0117305 7.143439 2.8902679 9.6332015 2.90625 10.978516 C 2.9771863 10.992433 3.0498661 11 3.125 11 L 7.4960938 11 C 8.2170897 10.117169 8.9722406 8.9697662 9.2089844 8.5683594 C 9.5963109 7.9116342 9.9832754 6.9725134 11.306641 4.4707031 C 11.623345 3.8719774 11.843376 3.3837979 11.96875 3 L 3.7441406 3 z " />
  <path
     id="path59"
     style="fill-rule:evenodd;fill:#101852;fill-opacity:1"
     d="M 3.125 3 C 2.50175 3 2 3.50175 2 4.125 L 2 9.875 C 2 10.49825 2.50175 11 3.125 11 L 4.5546875 11 C 4.6557935 10.689712 4.6910186 10.361511 4.609375 10.03125 C 4.2540118 8.59375 5.9654772 6.59375 5.7070312 4.6875 C 5.6213274 4.055364 5.6078409 3.4929594 5.6660156 3 L 3.125 3 z " />
  <path
     id="path61"
     style="fill-rule:evenodd;fill:#7a6c9f;fill-opacity:1"
     d="M 11.757812 3 C 11.577117 3.5326476 11.23873 3.9994626 10.783203 4.3339844 C 10.054867 4.8688473 9.6894531 5.4662094 9.6894531 6.125 C 9.6894531 7.40625 9.0457146 8.84375 7.9824219 9.1875 C 6.9191293 9.53125 5.8241741 9.4375 5.5664062 10.4375 C 5.3166936 11.40625 4.5826698 10.677369 4.15625 11 L 10.25 11 C 10.628558 9.7608224 11.236074 8.8440327 12.074219 8.25 C 13.749711 7.0625 10.559798 6.71875 11.880859 5.6875 C 12.573634 5.1467045 12.755868 4.249789 12.433594 3 L 11.757812 3 z " />
  <g
     transform="translate(1.75,7.75)"
     id="g79"
     style="fill:none;fill-rule:evenodd">
    <rect
       width="12.000954"
       height="3"
       x="0.24904613"
       y="0.25"
       fill="url(#computer-i)"
       rx="0.31299999"
       id="rect67"
       style="fill:url(#computer-i)" />
    <rect
       width="1"
       height="1"
       x="3.25"
       y="1.25"
       fill="#00c98f"
       rx="0.156"
       id="rect69" />
    <rect
       width="1"
       height="1"
       x="5.25"
       y="1.25"
       fill="#ff7d52"
       rx="0.156"
       id="rect71" />
    <rect
       width="1"
       height="1"
       x="7.25"
       y="1.25"
       fill="#ffb656"
       rx="0.156"
       id="rect73" />
    <rect
       width="1"
       height="1"
       x="10.25"
       y="1.25"
       fill="#fafafa"
       fill-opacity="0.3"
       rx="0.156"
       id="rect75" />
    <circle
       cx="1.75"
       cy="1.75"
       r="1"
       fill="#326cff"
       id="circle77" />
  </g>
</svg>
